{
	"asset":{
		"generator":"Khronos glTF Blender I/O v4.4.56",
		"version":"2.0"
	},
	"scene":0,
	"scenes":[
		{
			"name":"Scene",
			"nodes":[
				0,
				1,
				2,
				3
			]
		}
	],
	"nodes":[
		{
			"mesh":0,
			"name":"boulder_01_LOD0"
		},
		{
			"mesh":1,
			"name":"boulder_01_LOD1"
		},
		{
			"mesh":2,
			"name":"boulder_01_LOD2"
		},
		{
			"mesh":3,
			"name":"boulder_01_LOD3"
		}
	],
	"materials":[
		{
			"doubleSided":true,
			"name":"boulder_01",
			"normalTexture":{
				"index":0
			},
			"pbrMetallicRoughness":{
				"baseColorTexture":{
					"index":1
				},
				"metallicFactor":0,
				"metallicRoughnessTexture":{
					"index":2
				}
			}
		}
	],
	"meshes":[
		{
			"name":"rock_PROXY_5m.002",
			"primitives":[
				{
					"attributes":{
						"POSITION":0,
						"NORMAL":1,
						"TEXCOORD_0":2,
						"TANGENT":3
					},
					"indices":4,
					"material":0
				}
			]
		},
		{
			"name":"rock_PROXY_5m.001",
			"primitives":[
				{
					"attributes":{
						"POSITION":5,
						"NORMAL":6,
						"TEXCOORD_0":7,
						"TANGENT":8
					},
					"indices":9,
					"material":0
				}
			]
		},
		{
			"name":"rock_PROXY_5m.003",
			"primitives":[
				{
					"attributes":{
						"POSITION":10,
						"NORMAL":11,
						"TEXCOORD_0":12,
						"TANGENT":13
					},
					"indices":14,
					"material":0
				}
			]
		},
		{
			"name":"rock_PROXY_5m.004",
			"primitives":[
				{
					"attributes":{
						"POSITION":15,
						"NORMAL":16,
						"TEXCOORD_0":17,
						"TANGENT":18
					},
					"indices":19,
					"material":0
				}
			]
		}
	],
	"textures":[
		{
			"sampler":0,
			"source":0
		},
		{
			"sampler":0,
			"source":1
		},
		{
			"sampler":0,
			"source":2
		}
	],
	"images":[
		{
			"mimeType":"image/png",
			"name":"boulder_01_nor_gl",
			"uri":"boulder_01_nor_gl.png"
		},
		{
			"mimeType":"image/jpeg",
			"name":"boulder_01_diff",
			"uri":"boulder_01_diff.jpg"
		},
		{
			"mimeType":"image/png",
			"name":"boulder_01_rough",
			"uri":"boulder_01_rough.png"
		}
	],
	"accessors":[
		{
			"bufferView":0,
			"componentType":5126,
			"count":197864,
			"max":[
				0.5239759087562561,
				0.9301872253417969,
				0.8818937540054321
			],
			"min":[
				-0.7481597065925598,
				-0.07364296913146973,
				-0.9484404921531677
			],
			"type":"VEC3"
		},
		{
			"bufferView":1,
			"componentType":5126,
			"count":197864,
			"type":"VEC3"
		},
		{
			"bufferView":2,
			"componentType":5126,
			"count":197864,
			"type":"VEC2"
		},
		{
			"bufferView":3,
			"componentType":5126,
			"count":197864,
			"type":"VEC4"
		},
		{
			"bufferView":4,
			"componentType":5125,
			"count":198366,
			"type":"SCALAR"
		},
		{
			"bufferView":5,
			"componentType":5126,
			"count":19805,
			"max":[
				0.5242701172828674,
				0.9299140572547913,
				0.8822934031486511
			],
			"min":[
				-0.748157799243927,
				-0.07324518263339996,
				-0.9481315612792969
			],
			"type":"VEC3"
		},
		{
			"bufferView":6,
			"componentType":5126,
			"count":19805,
			"type":"VEC3"
		},
		{
			"bufferView":7,
			"componentType":5126,
			"count":19805,
			"type":"VEC2"
		},
		{
			"bufferView":8,
			"componentType":5126,
			"count":19805,
			"type":"VEC4"
		},
		{
			"bufferView":9,
			"componentType":5123,
			"count":99180,
			"type":"SCALAR"
		},
		{
			"bufferView":10,
			"componentType":5126,
			"count":10625,
			"max":[
				0.5242701172828674,
				0.9302488565444946,
				0.8807294368743896
			],
			"min":[
				-0.7484129667282104,
				-0.07326818257570267,
				-0.9470295906066895
			],
			"type":"VEC3"
		},
		{
			"bufferView":11,
			"componentType":5126,
			"count":10625,
			"type":"VEC3"
		},
		{
			"bufferView":12,
			"componentType":5126,
			"count":10625,
			"type":"VEC2"
		},
		{
			"bufferView":13,
			"componentType":5126,
			"count":10625,
			"type":"VEC4"
		},
		{
			"bufferView":14,
			"componentType":5123,
			"count":49590,
			"type":"SCALAR"
		},
		{
			"bufferView":15,
			"componentType":5126,
			"count":5818,
			"max":[
				0.5223388671875,
				0.9302488565444946,
				0.8819288611412048
			],
			"min":[
				-0.7481110692024231,
				-0.07168211787939072,
				-0.9470295906066895
			],
			"type":"VEC3"
		},
		{
			"bufferView":16,
			"componentType":5126,
			"count":5818,
			"type":"VEC3"
		},
		{
			"bufferView":17,
			"componentType":5126,
			"count":5818,
			"type":"VEC2"
		},
		{
			"bufferView":18,
			"componentType":5126,
			"count":5818,
			"type":"VEC4"
		},
		{
			"bufferView":19,
			"componentType":5123,
			"count":24792,
			"type":"SCALAR"
		}
	],
	"bufferViews":[
		{
			"buffer":0,
			"byteLength":2374368,
			"byteOffset":0,
			"target":34962
		},
		{
			"buffer":0,
			"byteLength":2374368,
			"byteOffset":2374368,
			"target":34962
		},
		{
			"buffer":0,
			"byteLength":1582912,
			"byteOffset":4748736,
			"target":34962
		},
		{
			"buffer":0,
			"byteLength":3165824,
			"byteOffset":6331648,
			"target":34962
		},
		{
			"buffer":0,
			"byteLength":793464,
			"byteOffset":9497472,
			"target":34963
		},
		{
			"buffer":0,
			"byteLength":237660,
			"byteOffset":10290936,
			"target":34962
		},
		{
			"buffer":0,
			"byteLength":237660,
			"byteOffset":10528596,
			"target":34962
		},
		{
			"buffer":0,
			"byteLength":158440,
			"byteOffset":10766256,
			"target":34962
		},
		{
			"buffer":0,
			"byteLength":316880,
			"byteOffset":10924696,
			"target":34962
		},
		{
			"buffer":0,
			"byteLength":198360,
			"byteOffset":11241576,
			"target":34963
		},
		{
			"buffer":0,
			"byteLength":127500,
			"byteOffset":11439936,
			"target":34962
		},
		{
			"buffer":0,
			"byteLength":127500,
			"byteOffset":11567436,
			"target":34962
		},
		{
			"buffer":0,
			"byteLength":85000,
			"byteOffset":11694936,
			"target":34962
		},
		{
			"buffer":0,
			"byteLength":170000,
			"byteOffset":11779936,
			"target":34962
		},
		{
			"buffer":0,
			"byteLength":99180,
			"byteOffset":11949936,
			"target":34963
		},
		{
			"buffer":0,
			"byteLength":69816,
			"byteOffset":12049116,
			"target":34962
		},
		{
			"buffer":0,
			"byteLength":69816,
			"byteOffset":12118932,
			"target":34962
		},
		{
			"buffer":0,
			"byteLength":46544,
			"byteOffset":12188748,
			"target":34962
		},
		{
			"buffer":0,
			"byteLength":93088,
			"byteOffset":12235292,
			"target":34962
		},
		{
			"buffer":0,
			"byteLength":49584,
			"byteOffset":12328380,
			"target":34963
		}
	],
	"samplers":[
		{
			"magFilter":9729,
			"minFilter":9987
		}
	],
	"buffers":[
		{
			"byteLength":12377964,
			"uri":"boulder_01_4k.bin"
		}
	]
}
