{
	"asset":{
		"generator":"Khronos glTF Blender I/O v4.4.55",
		"version":"2.0"
	},
	"scene":0,
	"scenes":[
		{
			"name":"Scene",
			"nodes":[
				0
			]
		}
	],
	"nodes":[
		{
			"mesh":0,
			"name":"utility_box_02"
		}
	],
	"materials":[
		{
			"doubleSided":true,
			"name":"utility_box_02",
			"normalTexture":{
				"index":0
			},
			"pbrMetallicRoughness":{
				"baseColorTexture":{
					"index":1
				},
				"metallicRoughnessTexture":{
					"index":2
				}
			}
		}
	],
	"meshes":[
		{
			"name":"Cube.016",
			"primitives":[
				{
					"attributes":{
						"POSITION":0,
						"NORMAL":1,
						"TEXCOORD_0":2,
						"TANGENT":3
					},
					"indices":4,
					"material":0
				}
			]
		}
	],
	"textures":[
		{
			"sampler":0,
			"source":0
		},
		{
			"sampler":0,
			"source":1
		},
		{
			"sampler":0,
			"source":2
		}
	],
	"images":[
		{
			"mimeType":"image/png",
			"name":"utility_box_02_nor_gl",
			"uri":"utility_box_02_nor_gl.png"
		},
		{
			"mimeType":"image/jpeg",
			"name":"utility_box_02_diff",
			"uri":"utility_box_02_diff.jpg"
		},
		{
			"mimeType":"image/png",
			"name":"utility_box_02_metal-utility_box_02_rough",
			"uri":"utility_box_02_metal-utility_box_02_rough.png"
		}
	],
	"accessors":[
		{
			"bufferView":0,
			"componentType":5126,
			"count":5080,
			"max":[
				0.4600001573562622,
				1.1203334331512451,
				0.22200000286102295
			],
			"min":[
				-0.46000003814697266,
				0,
				-0.20999999344348907
			],
			"type":"VEC3"
		},
		{
			"bufferView":1,
			"componentType":5126,
			"count":5080,
			"type":"VEC3"
		},
		{
			"bufferView":2,
			"componentType":5126,
			"count":5080,
			"type":"VEC2"
		},
		{
			"bufferView":3,
			"componentType":5126,
			"count":5080,
			"type":"VEC4"
		},
		{
			"bufferView":4,
			"componentType":5123,
			"count":18804,
			"type":"SCALAR"
		}
	],
	"bufferViews":[
		{
			"buffer":0,
			"byteLength":60960,
			"byteOffset":0,
			"target":34962
		},
		{
			"buffer":0,
			"byteLength":60960,
			"byteOffset":60960,
			"target":34962
		},
		{
			"buffer":0,
			"byteLength":40640,
			"byteOffset":121920,
			"target":34962
		},
		{
			"buffer":0,
			"byteLength":81280,
			"byteOffset":162560,
			"target":34962
		},
		{
			"buffer":0,
			"byteLength":37608,
			"byteOffset":243840,
			"target":34963
		}
	],
	"samplers":[
		{
			"magFilter":9729,
			"minFilter":9987
		}
	],
	"buffers":[
		{
			"byteLength":281448,
			"uri":"utility_box_02_4k.bin"
		}
	]
}
