{
	"asset":{
		"generator":"Khronos glTF Blender I/O v4.4.55",
		"version":"2.0"
	},
	"scene":0,
	"scenes":[
		{
			"name":"Scene",
			"nodes":[
				0
			]
		}
	],
	"nodes":[
		{
			"mesh":0,
			"name":"wooden_picnic_table"
		}
	],
	"materials":[
		{
			"doubleSided":true,
			"name":"wooden_picnic_table_bottom",
			"normalTexture":{
				"index":0
			},
			"pbrMetallicRoughness":{
				"baseColorTexture":{
					"index":1
				},
				"metallicRoughnessTexture":{
					"index":2
				}
			}
		},
		{
			"doubleSided":true,
			"name":"wooden_picnic_table_table",
			"normalTexture":{
				"index":3
			},
			"pbrMetallicRoughness":{
				"baseColorTexture":{
					"index":4
				},
				"metallicRoughnessTexture":{
					"index":5
				}
			}
		}
	],
	"meshes":[
		{
			"name":"Cube.003",
			"primitives":[
				{
					"attributes":{
						"POSITION":0,
						"NORMAL":1,
						"TEXCOORD_0":2,
						"TANGENT":3
					},
					"indices":4,
					"material":0
				},
				{
					"attributes":{
						"POSITION":5,
						"NORMAL":6,
						"TEXCOORD_0":7,
						"TANGENT":8
					},
					"indices":9,
					"material":1
				}
			]
		}
	],
	"textures":[
		{
			"sampler":0,
			"source":0
		},
		{
			"sampler":0,
			"source":1
		},
		{
			"sampler":0,
			"source":2
		},
		{
			"sampler":0,
			"source":3
		},
		{
			"sampler":0,
			"source":4
		},
		{
			"sampler":0,
			"source":5
		}
	],
	"images":[
		{
			"mimeType":"image/png",
			"name":"wooden_picnic_table_bottom_nor_gl",
			"uri":"wooden_picnic_table_bottom_nor_gl.png"
		},
		{
			"mimeType":"image/png",
			"name":"wooden_picnic_table_bottom_diff",
			"uri":"wooden_picnic_table_bottom_diff.png"
		},
		{
			"mimeType":"image/png",
			"name":"wooden_picnic_table_bottom_metal-wooden_picnic_table_bottom_rough",
			"uri":"wooden_picnic_table_bottom_metal-wooden_picnic_table_bottom_rough.png"
		},
		{
			"mimeType":"image/png",
			"name":"wooden_picnic_table_top_nor_gl",
			"uri":"wooden_picnic_table_top_nor_gl.png"
		},
		{
			"mimeType":"image/png",
			"name":"wooden_picnic_table_top_diff",
			"uri":"wooden_picnic_table_top_diff.png"
		},
		{
			"mimeType":"image/png",
			"name":"wooden_picnic_table_top_metal-wooden_picnic_table_top_rough",
			"uri":"wooden_picnic_table_top_metal-wooden_picnic_table_top_rough.png"
		}
	],
	"accessors":[
		{
			"bufferView":0,
			"componentType":5126,
			"count":2998,
			"max":[
				1.1197271347045898,
				0.7037535905838013,
				1.520809531211853
			],
			"min":[
				-1.1212488412857056,
				-0.0002588331699371338,
				-1.501520037651062
			],
			"type":"VEC3"
		},
		{
			"bufferView":1,
			"componentType":5126,
			"count":2998,
			"type":"VEC3"
		},
		{
			"bufferView":2,
			"componentType":5126,
			"count":2998,
			"type":"VEC2"
		},
		{
			"bufferView":3,
			"componentType":5126,
			"count":2998,
			"type":"VEC4"
		},
		{
			"bufferView":4,
			"componentType":5123,
			"count":7878,
			"type":"SCALAR"
		},
		{
			"bufferView":5,
			"componentType":5126,
			"count":4659,
			"max":[
				0.6173738241195679,
				0.745728075504303,
				1.4567499160766602
			],
			"min":[
				-0.6282728910446167,
				0.6976591348648071,
				-1.4654229879379272
			],
			"type":"VEC3"
		},
		{
			"bufferView":6,
			"componentType":5126,
			"count":4659,
			"type":"VEC3"
		},
		{
			"bufferView":7,
			"componentType":5126,
			"count":4659,
			"type":"VEC2"
		},
		{
			"bufferView":8,
			"componentType":5126,
			"count":4659,
			"type":"VEC4"
		},
		{
			"bufferView":9,
			"componentType":5123,
			"count":22752,
			"type":"SCALAR"
		}
	],
	"bufferViews":[
		{
			"buffer":0,
			"byteLength":35976,
			"byteOffset":0,
			"target":34962
		},
		{
			"buffer":0,
			"byteLength":35976,
			"byteOffset":35976,
			"target":34962
		},
		{
			"buffer":0,
			"byteLength":23984,
			"byteOffset":71952,
			"target":34962
		},
		{
			"buffer":0,
			"byteLength":47968,
			"byteOffset":95936,
			"target":34962
		},
		{
			"buffer":0,
			"byteLength":15756,
			"byteOffset":143904,
			"target":34963
		},
		{
			"buffer":0,
			"byteLength":55908,
			"byteOffset":159660,
			"target":34962
		},
		{
			"buffer":0,
			"byteLength":55908,
			"byteOffset":215568,
			"target":34962
		},
		{
			"buffer":0,
			"byteLength":37272,
			"byteOffset":271476,
			"target":34962
		},
		{
			"buffer":0,
			"byteLength":74544,
			"byteOffset":308748,
			"target":34962
		},
		{
			"buffer":0,
			"byteLength":45504,
			"byteOffset":383292,
			"target":34963
		}
	],
	"samplers":[
		{
			"magFilter":9729,
			"minFilter":9987
		}
	],
	"buffers":[
		{
			"byteLength":428796,
			"uri":"wooden_picnic_table_4k.bin"
		}
	]
}
